<svg width="16" height="17" viewBox="0 0 16 17" fill="none" xmlns="http://www.w3.org/2000/svg">
<path d="M10.6667 14.3101V12.9767C10.6667 12.2695 10.3857 11.5912 9.88563 11.0911C9.38553 10.591 8.70725 10.3101 8.00001 10.3101H4.00001C3.29277 10.3101 2.61449 10.591 2.11439 11.0911C1.6143 11.5912 1.33334 12.2695 1.33334 12.9767V14.3101" stroke="#717182" stroke-width="1.33333" stroke-linecap="round" stroke-linejoin="round"/>
<path d="M10.6667 2.39551C11.2385 2.54375 11.7449 2.87768 12.1064 3.34488C12.468 3.81208 12.6641 4.3861 12.6641 4.97684C12.6641 5.56758 12.468 6.1416 12.1064 6.6088C11.7449 7.076 11.2385 7.40993 10.6667 7.55817" stroke="#717182" stroke-width="1.33333" stroke-linecap="round" stroke-linejoin="round"/>
<path d="M14.6667 14.3101V12.9767C14.6662 12.3859 14.4696 11.8119 14.1076 11.3449C13.7456 10.878 13.2387 10.5444 12.6667 10.3967" stroke="#717182" stroke-width="1.33333" stroke-linecap="round" stroke-linejoin="round"/>
<path d="M6.00001 7.64339C7.47277 7.64339 8.66668 6.44948 8.66668 4.97673C8.66668 3.50397 7.47277 2.31006 6.00001 2.31006C4.52725 2.31006 3.33334 3.50397 3.33334 4.97673C3.33334 6.44948 4.52725 7.64339 6.00001 7.64339Z" stroke="#717182" stroke-width="1.33333" stroke-linecap="round" stroke-linejoin="round"/>
</svg>
